<!DOCTYPE svg PUBLIC "-//W3C//DTD SVG 1.1//EN" "http://www.w3.org/Graphics/SVG/1.1/DTD/svg11.dtd">

<!-- Uploaded to: SVG Repo, www.svgrepo.com, Transformed by: SVG Repo Mixer Tools -->
<svg width="40px" height="40px" viewBox="-2.4 -2.4 28.80 28.80" fill="none" xmlns="http://www.w3.org/2000/svg">

<g id="SVGRepo_bgCarrier" stroke-width="0" transform="translate(1.1999999999999993,1.1999999999999993), scale(0.9)">

<path transform="translate(-2.4, -2.4), scale(0.8999999999999999)" d="M16,30.030963946133852C17.91244996681296,30.237472141427727,19.756581440689725,29.00502458081229,21.250960991099593,27.793851484346213C22.6400336731915,26.668028087522924,22.76540305934867,24.450086922058645,24.200975468050068,23.384191478619655C26.096165550697396,21.977035377471196,29.285546048914075,22.665380477390816,30.701623411122135,20.776847012872388C31.985022911023083,19.065257682661034,31.3480199276478,16.52721218822801,30.913167076695768,14.43256297901463C30.494274991938255,12.414795423479276,29.52442656426693,10.54534556371911,28.242561305547802,8.931753934671486C27.036348849581834,7.413392852209128,25.44103511631743,6.267114649630844,23.718638821622093,5.376205075272431C22.116442450372066,4.547468917661594,20.366289875432173,4.043887042897303,18.566261792782594,3.926687500870875C16.87565612706376,3.8166124349986355,15.293815466580524,4.803827293207588,13.601830873455011,4.717501319634781C11.26234897994334,4.5981396818669795,9.003543441073253,2.5542982602196744,6.791760811142545,3.325946061082451C4.7483759693580945,4.038843159622692,3.907054211791334,6.522007589655424,2.915600660906197,8.445718519389622C1.948560481876649,10.322060341182922,0.5555700041312287,12.383041039680572,1.0685567057335792,14.430642071143303C1.6199238013567112,16.63143953857489,5.092288896069832,17.163674852572285,5.650641149233952,19.362710533996243C6.267420084100806,21.791856073638584,2.6557258093133775,24.654563274234818,4.171301122195036,26.6506083083569C5.610086391924867,28.545519216711398,8.943111288131446,26.058103797405213,11.230771862324985,26.711861780356777C13.113627517952025,27.249936322313516,14.053086253492669,29.820734318608444,16,30.030963946133852" fill="#1d363f" strokewidth="0"/>

</g>

<g id="SVGRepo_tracerCarrier" stroke-linecap="round" stroke-linejoin="round"/>

<g id="SVGRepo_iconCarrier"> <path fill-rule="evenodd" clip-rule="evenodd" d="M22 12.0002C20.2531 15.5764 15.8775 19 11.9998 19C8.12201 19 3.74646 15.5764 2 11.9998" stroke="#6600ff" stroke-width="2" stroke-linecap="round" stroke-linejoin="round"/> <path fill-rule="evenodd" clip-rule="evenodd" d="M22 12.0002C20.2531 8.42398 15.8782 5 12.0005 5C8.1227 5 3.74646 8.42314 2 11.9998" stroke="#6600ff" stroke-width="2" stroke-linecap="round" stroke-linejoin="round"/> <path d="M15 12C15 13.6569 13.6569 15 12 15C10.3431 15 9 13.6569 9 12C9 10.3431 10.3431 9 12 9C13.6569 9 15 10.3431 15 12Z" stroke="#6600ff" stroke-width="2" stroke-linecap="round" stroke-linejoin="round"/> </g>

</svg>